PathFileType	4	(X/Y/Z)	Patient4_TMGait_0pt5_01_right_30.trc.trc
DataRate	CameraRate	NumFrames	NumMarkers	Units	OrigDataRate	OrigDataStartFrame	OrigNumFrames
76.502732240437	76.502732240437	4	33	mm	76.502732240437	1	       141
Frame#	Time	L.ASIS			Sacral			L.Shoulder			Chest			R.Shoulder			Neck			R.ASIS			R.Thigh.Superior			R.Thigh.Lateral			R.Thigh.Inferior			R.Patella			L.Thigh.Superior			L.Thigh.Lateral			L.Thigh.Inferior			L.Patella			L.Shank.Superior			L.Shank.Lateral			L.Shank.Inferior			R.Shank.Superior			R.Shank.Lateral			R.Shank.Inferior			R.Heel			R.Midfoot.Superior			R.Midfoot.Lateral			R.Toe			L.Heel			L.Midfoot.Lateral			L.Midfoot.Superior			L.Toe			L.Elbow			L.Wrist			R.Elbow			R.Wrist			
		X1	Y1	Z1	X2	Y2	Z2	X3	Y3	Z3	X4	Y4	Z4	X5	Y5	Z5	X6	Y6	Z6	X7	Y7	Z7	X8	Y8	Z8	X9	Y9	Z9	X10	Y10	Z10	X11	Y11	Z11	X12	Y12	Z12	X13	Y13	Z13	X14	Y14	Z14	X15	Y15	Z15	X16	Y16	Z16	X17	Y17	Z17	X18	Y18	Z18	X19	Y19	Z19	X20	Y20	Z20	X21	Y21	Z21	X22	Y22	Z22	X23	Y23	Z23	X24	Y24	Z24	X25	Y25	Z25	X26	Y26	Z26	X27	Y27	Z27	X28	Y28	Z28	X29	Y29	Z29	X30	Y30	Z30	X31	Y31	Z31	X32	Y32	Z32	X33	Y33	Z33	

1	39.440000000000	862.485388859335	962.645285878840	292.096856868556	647.902120966246	1006.570410564195	448.523042911460	830.524342400109	1442.556528821495	281.517565008471	927.775584435567	1364.465570094754	442.803264395556	838.220006585041	1434.919437286748	617.558845192366	831.036926060728	1497.724015598949	433.666774548164	873.632371161144	944.846055909441	566.066989808688	957.527916241331	775.915614217092	535.884812455033	918.088576507220	654.221693305078	606.823908139646	1009.011417951230	615.696315400828	527.793786752253	1027.847961428718	501.200223150412	548.752060549891	910.324473733492	748.871750303284	324.163967506940	817.600850731448	634.839357090836	269.000357049162	898.104622599115	555.500455117465	334.256873885779	896.531793787201	484.317282218535	346.790827357786	864.974270111400	412.047991450513	339.621189024209	771.059647052221	302.304627804171	288.126169939839	810.306402973437	190.022168967197	362.598909121629	950.018664938751	427.535568669556	556.383026348675	827.473640296879	390.790034366756	615.975259312951	811.421095198070	281.316638409173	568.328883969707	612.225281752378	235.503474697391	535.687544654824	769.931544217428	154.764699529265	582.618513518028	659.802334207339	168.030374041356	610.792575582755	818.797849387194	35.101676108490	611.494664006422	672.914738321674	37.999706097665	402.395251011195	747.459518452278	35.239665858692	321.850319623243	830.963252942813	95.685536213516	349.592608823799	959.460166123952	41.842970501658	321.127243168005	767.567683576561	1120.598359216175	112.937755805795	959.514160824328	943.115698328394	107.185524941988	732.688960904199	1104.565736056297	723.518997384490	756.437677668093	848.749845293318	767.451429481323	
2	39.453071428571	862.410015215043	962.755951468328	292.467005897337	646.251895722993	1007.735758407395	447.124343737037	831.823207554732	1442.799110427982	280.560794425687	927.335456709914	1364.785184261112	442.840137357726	836.330941323085	1435.775192223450	616.439355163145	830.828112852133	1498.209901558686	432.642792913566	871.105194508461	945.897520884929	566.682846339792	956.221707393700	778.757410767472	536.175811894922	918.816717996993	656.875713570134	607.614573739170	1009.446161235980	619.094908339102	527.983862836297	1030.308303833567	505.705440989023	549.613785350084	907.133496883417	747.940761826760	325.619360108692	813.439828433465	635.102388130523	269.127530230473	892.237944039746	554.857711047897	335.008345021686	889.544357157371	483.825265779353	347.452779873006	858.230197057904	412.009558133362	339.850264282083	764.270164649543	302.398352976467	288.194836788149	803.451381549098	190.069981809130	362.711789437633	955.299141780600	430.049614963139	557.309473366373	834.413867677568	387.969418258677	616.006032214309	823.731688058534	278.082190607197	568.607609914822	627.316373123332	222.006781753442	534.905912400712	788.393124012518	151.015113703655	583.019325152915	678.035799683859	158.096039714243	610.691950347431	843.610962470792	34.937070890970	612.928145063129	665.900958508147	37.991687980611	402.410081627972	740.489385645330	35.256379390702	321.846744934607	823.997443543052	95.687469020676	349.625841935608	952.487986957335	41.864668889573	321.131915983666	772.093516734464	1120.274073174767	111.946298896110	967.342108507081	946.968736497201	110.502848120426	730.910623074716	1104.430855385017	720.438863859349	756.011459441673	848.452315538414	762.762236479154	
3	39.466142857143	862.308301966511	962.822686832332	292.883597812846	644.604779502863	1008.858998900596	445.748154410340	833.117848523582	1442.988393151747	279.635706016814	926.906457789518	1365.057327930804	442.897379867577	834.480266773726	1436.587643858707	615.361505176719	830.640972217072	1498.654459646358	431.645349933448	868.583854902818	946.896464663006	567.310152161812	954.866486062958	781.465677605977	536.521572947993	919.386380553070	659.397411792204	608.420225101051	1009.718235181468	622.328276098674	528.224687667604	1032.559246446672	510.085439149763	550.509568355685	903.963993303561	747.002924751881	327.067652878927	809.323169232146	635.344642187111	269.250960733629	886.426728685699	554.207905669309	335.750825769373	882.624954268124	483.329473803999	348.100233684970	851.548103017362	411.956350220980	340.077270324150	757.542388270150	302.480174181762	288.260740320224	796.638729515150	190.104863071949	362.825717817678	960.438262311948	432.445515066007	558.263308159861	841.363673407822	384.958027687493	616.159408411710	836.094974484330	274.724511482276	568.969233821907	642.634840432660	208.296130116828	534.326275227417	806.994689390804	147.189019069227	583.492883827696	696.528915615479	148.029469739750	610.763335656143	868.597242996389	34.836481201879	614.369822043193	658.941218761606	37.981406588060	402.418718065328	733.567030454817	35.267511297042	321.844415028691	817.078463004296	95.686856840565	349.660196837128	945.565549635719	41.885262164142	321.139062828998	776.635035529832	1119.889659939472	111.001318321502	975.120751104125	950.748607084668	113.883648528256	729.246811899699	1104.225338878037	717.398640470292	755.783497364802	848.087101279185	758.095155714048	
4	39.479214285714	862.160996667812	962.803857766192	293.381900234804	642.976225136487	1009.897926317714	444.426724859046	834.405919586619	1443.077262781992	278.784366678097	926.506825354897	1365.234348010135	443.000083587193	832.721165755752	1437.309807019366	614.374871311267	830.504368229022	1499.015932860980	430.713848798818	866.088630267956	947.789532120936	567.963764069579	953.395002688157	783.879688993931	536.982564728828	919.595234382066	661.641880874681	609.268653726730	1009.628239735597	625.207891906860	528.581290015771	1034.351357510456	514.209153594358	551.469945079902	900.845716885504	746.050642239672	328.493939701050	805.296421511800	635.544884450011	269.371414013336	880.731815484929	553.541991589083	336.474240333709	875.849960458309	482.825229778977	348.718773310981	844.995205866969	411.873717168349	340.300969994876	750.936987851167	302.541641463737	288.323262691426	789.910219762264	190.115748645870	362.941447058928	965.263443209857	434.621753018524	559.276743650839	848.321227708186	381.622866139054	616.548994345382	848.545757694256	271.204558399422	569.493775597630	658.438930661191	194.299471440196	534.127222609682	825.850317165943	143.318113996464	584.106534177438	715.536310227369	137.828570686884	611.147165300026	893.855762252590	34.976755401803	615.822539600981	652.079899875302	37.968889719436	402.418087084371	726.731148301455	35.270319542944	321.844351122239	810.244851297650	95.681084244039	349.696977310245	938.732490966470	41.901655652760	321.150251576385	781.203456547893	1119.386894295766	110.173697549363	982.786762107701	954.369016919037	117.398122853797	727.823365992337	1103.887372489736	714.470353356616	755.980701741697	847.603670945321	753.485209121592	
